<svg width="13" height="13" viewBox="0 0 13 13" fill="none" xmlns="http://www.w3.org/2000/svg">
<path fill-rule="evenodd" clip-rule="evenodd" d="M0.122039 0.122039C0.284757 -0.0406796 0.548576 -0.0406796 0.711294 0.122039L6.25 5.66074L11.7887 0.122039C11.9514 -0.0406796 12.2152 -0.0406796 12.378 0.122039C12.5407 0.284757 12.5407 0.548576 12.378 0.711294L6.83926 6.25L12.378 11.7887C12.5407 11.9514 12.5407 12.2152 12.378 12.378C12.2152 12.5407 11.9514 12.5407 11.7887 12.378L6.25 6.83926L0.711294 12.378C0.548576 12.5407 0.284757 12.5407 0.122039 12.378C-0.0406796 12.2152 -0.0406796 11.9514 0.122039 11.7887L5.66074 6.25L0.122039 0.711294C-0.0406796 0.548576 -0.0406796 0.284757 0.122039 0.122039Z" fill="#FD2727"/>
</svg>
