<svg width="33" height="33" viewBox="0 0 33 33" fill="none" xmlns="http://www.w3.org/2000/svg">
<path d="M18.0653 0.917272C17.9094 0.63906 17.6821 0.407425 17.4069 0.246204C17.1318 0.0849835 16.8186 0 16.4996 0C16.1807 0 15.8675 0.0849835 15.5924 0.246204C15.3172 0.407425 15.0899 0.63906 14.934 0.917272C14.5673 1.5846 14.2147 2.26049 13.8762 2.94494C12.8095 5.11002 11.9026 7.35022 11.1628 9.6476C10.908 10.4378 10.1527 10.9859 9.28732 11.0098C6.66422 11.0787 4.04965 11.3391 1.46448 11.7889C0.0454844 12.0383 -0.488016 13.6553 0.520317 14.6416C0.750095 14.8677 0.982318 15.0908 1.21698 15.3108C2.9716 16.9678 4.82679 18.5151 6.77198 19.9436C7.44482 20.4368 7.72165 21.2819 7.46498 22.0556C6.48725 24.9945 5.78752 28.0187 5.37498 31.0884C5.19165 32.4726 6.67298 33.4498 7.95998 32.7898C10.5121 31.4812 12.9525 29.9655 15.2566 28.2578C15.6176 27.9943 16.0528 27.8524 16.4996 27.8524C16.9465 27.8524 17.3817 27.9943 17.7426 28.2578C20.0464 29.9661 22.4868 31.4819 25.0393 32.7898C26.3245 33.4498 27.8076 32.4726 27.6243 31.0884C27.5534 30.569 27.4758 30.0526 27.3915 29.5393C26.968 27.0002 26.347 24.4981 25.5343 22.0556C25.2776 21.2819 25.5526 20.4368 26.2273 19.9436C28.4342 18.3266 30.5233 16.5548 32.479 14.6416C33.4873 13.6553 32.9556 12.0383 31.5348 11.7889C28.95 11.3365 26.3352 11.0761 23.712 11.0098C23.2972 11.0032 22.8946 10.8688 22.559 10.6251C22.2233 10.3813 21.9711 10.04 21.8365 9.6476C20.8624 6.62383 19.5995 3.69902 18.0653 0.917272Z" fill="#FFE01A"/>
</svg>
